# xmcd CD database file
#
# Track frame offsets:
#	150
#	13638
#	30305
#	47733
#	64160
#	79158
#
# Disc length: 1262 seconds
#
# Revision: 1
# Processed by: cddbd v1.5.1PL0 Copyright (c) Steve Scherf et al.
# Submitted via: CDex 1.51
#
DISCID=4004ec06
DTITLE=CHARCOAL FILTER - Gimme a Light 2
DYEAR=2005
DGENRE=Rock/Loud
TTITLE0=a party song
TTITLE1=Workin' Dog after work
TTITLE2=Place
TTITLE3=Honey Money
TTITLE4=Love
TTITLE5=music slave
EXTD=YEAR: 2005
EXTT0=
EXTT1=
EXTT2=
EXTT3=
EXTT4=
EXTT5=
PLAYORDER=
